<svg xmlns="http://www.w3.org/2000/svg" viewBox="0 0 512 512" role="img" aria-label="CHORES app icon">
  <defs>
    <linearGradient id="rainbow" x1="64" y1="72" x2="448" y2="440" gradientUnits="userSpaceOnUse">
      <stop offset="0" stop-color="#ff8a4c" />
      <stop offset="0.34" stop-color="#ffd36e" />
      <stop offset="0.68" stop-color="#4fc7b5" />
      <stop offset="1" stop-color="#5f9dff" />
    </linearGradient>
    <radialGradient id="shine" cx="26%" cy="22%" r="50%">
      <stop offset="0" stop-color="#ffffff" stop-opacity="0.95" />
      <stop offset="0.34" stop-color="#ffffff" stop-opacity="0.34" />
      <stop offset="1" stop-color="#ffffff" stop-opacity="0" />
    </radialGradient>
    <filter id="shadow" x="-20%" y="-20%" width="140%" height="140%">
      <feDropShadow dx="0" dy="20" stdDeviation="18" flood-color="#1b2a45" flood-opacity="0.24" />
    </filter>
  </defs>

  <rect width="512" height="512" rx="118" fill="#fff4e6" />
  <rect x="36" y="36" width="440" height="440" rx="104" fill="url(#rainbow)" filter="url(#shadow)" />
  <rect x="36" y="36" width="440" height="440" rx="104" fill="url(#shine)" />
  <path d="M158 171h196c30 0 54 24 54 54s-24 54-54 54H158c-30 0-54-24-54-54s24-54 54-54Z" fill="#fffaf0" opacity="0.96" />
  <path d="M157 312h198c24 0 44 20 44 44s-20 44-44 44H157c-24 0-44-20-44-44s20-44 44-44Z" fill="#fffaf0" opacity="0.92" />
  <path d="m156 225 30 30 64-76" fill="none" stroke="#28a995" stroke-width="28" stroke-linecap="round" stroke-linejoin="round" />
  <text x="256" y="372" text-anchor="middle" font-family="Arial Rounded MT Bold, Arial, sans-serif" font-size="58" font-weight="900" fill="#2d2418">CHORES</text>
  <path d="M399 105 411 132 438 144 411 156 399 183 387 156 360 144 387 132Z" fill="#fffaf0" opacity="0.94" />
  <path d="M112 383 120 401 138 409 120 417 112 435 104 417 86 409 104 401Z" fill="#fffaf0" opacity="0.88" />
</svg>
